REM GENRE "Black Metal"
REM DATE 1994
REM DISCID 910CB70B
REM COMMENT "ExactAudioCopy v1.0b3"
CATALOG 0000000000000
PERFORMER "Necromantia & Varathron"
TITLE "Black Arts Lead To Everlasting Sins"
FILE "Necromantia & Varathron - Black Arts Lead To Everlasting Sins.flac" WAVE
  TRACK 01 AUDIO
    TITLE "Lord of the Abyss (Necromantia)"
    PERFORMER "Necromantia & Varathron"
    INDEX 00 00:00:00
    INDEX 01 00:00:32
  TRACK 02 AUDIO
    TITLE "The Feast of Ghouls (Necromantia)"
    PERFORMER "Necromantia & Varathron"
    INDEX 00 07:47:27
    INDEX 01 07:50:65
  TRACK 03 AUDIO
    TITLE "Evil Prayers (Necromantia)"
    PERFORMER "Necromantia & Varathron"
    INDEX 00 13:21:20
    INDEX 01 13:24:57
  TRACK 04 AUDIO
    TITLE "Lycanthropia (Necromantia)"
    PERFORMER "Necromantia & Varathron"
    INDEX 01 19:08:52
  TRACK 05 AUDIO
    TITLE "Demagia Veterum (Necromantia)"
    PERFORMER "Necromantia & Varathron"
    INDEX 00 20:48:72
    INDEX 01 20:52:40
  TRACK 06 AUDIO
    TITLE "The Cult of the Dragon (Varathron)"
    PERFORMER "Necromantia & Varathron"
    INDEX 00 30:53:10
    INDEX 01 30:56:47
  TRACK 07 AUDIO
    TITLE "The Tressrising of Nyarla Thoter (Varathron)"
    PERFORMER "Necromantia & Varathron"
    INDEX 00 33:19:65
    INDEX 01 33:23:27
  TRACK 08 AUDIO
    TITLE "La Reinenoir (Varathron)"
    PERFORMER "Necromantia & Varathron"
    INDEX 00 40:34:42
    INDEX 01 40:38:07
  TRACK 09 AUDIO
    TITLE "Outro (Varathron)"
    PERFORMER "Necromantia & Varathron"
    INDEX 00 46:46:50
    INDEX 01 46:47:17
  TRACK 10 AUDIO
    TITLE "Descent of a Prophetic Vision (Varathron)"
    PERFORMER "Necromantia & Varathron"
    INDEX 00 47:35:00
    INDEX 01 47:36:40
  TRACK 11 AUDIO
    TITLE "Genesis Of Apocryphal Desires (Varathron)"
    PERFORMER "Necromantia & Varathron"
    INDEX 00 51:01:67
    INDEX 01 51:05:32
